HIERARCHY
ROOT SimulationBone
{
	OFFSET 0.000000 0.000000 0.000000
	CHANNELS 6 Xposition Yposition Zposition Zrotation Yrotation Xrotation 
	JOINT Hips
	{
		OFFSET 0.000000 0.000000 0.000000
		CHANNELS 6 Xposition Yposition Zposition Zrotation Yrotation Xrotation 
		JOINT RightUpLeg
		{
			OFFSET 0.103462 1.857827 10.548504
			CHANNELS 3 Zrotation Yrotation Xrotation
			JOINT RightLeg
			{
				OFFSET 43.500000 -0.000031 0.000000
				CHANNELS 3 Zrotation Yrotation Xrotation
				JOINT RightFoot
				{
					OFFSET 42.372192 0.000015 0.000000
					CHANNELS 3 Zrotation Yrotation Xrotation
					JOINT RightToe
					{
						OFFSET 17.300001 0.000000 -0.000009
						CHANNELS 3 Zrotation Yrotation Xrotation
						End Site
						{
							OFFSET 0.000000 0.000000 0.000000
						}
					}
				}
			}
		}
		JOINT LeftUpLeg
		{
			OFFSET 0.103456 1.857828 -10.548508
			CHANNELS 3 Zrotation Yrotation Xrotation
			JOINT LeftLeg
			{
				OFFSET 43.500046 -0.000015 0.000008
				CHANNELS 3 Zrotation Yrotation Xrotation
				JOINT LeftFoot
				{
					OFFSET 42.372261 -0.000015 0.000002
					CHANNELS 3 Zrotation Yrotation Xrotation
					JOINT LeftToe
					{
						OFFSET 17.299999 -0.000003 0.000011
						CHANNELS 3 Zrotation Yrotation Xrotation
						End Site
						{
							OFFSET 0.000000 0.000000 0.000000
						}
					}
				}
			}
		}
		JOINT Spine
		{
			OFFSET 6.901966 -2.603728 -0.000009
			CHANNELS 3 Zrotation Yrotation Xrotation
			JOINT Spine1
			{
				OFFSET 12.588099 0.000000 0.000013
				CHANNELS 3 Zrotation Yrotation Xrotation
				JOINT Spine2
				{
					OFFSET 12.343203 0.000005 -0.000004
					CHANNELS 3 Zrotation Yrotation Xrotation
					JOINT Neck
					{
						OFFSET 25.832897 -0.000004 0.000004
						CHANNELS 3 Zrotation Yrotation Xrotation
						JOINT Head
						{
							OFFSET 11.766615 0.000003 -0.000003
							CHANNELS 3 Zrotation Yrotation Xrotation
							End Site
							{
								OFFSET 0.000000 0.000000 0.000000
							}
						}
					}
					JOINT RightShoulder
					{
						OFFSET 19.745903 -1.480370 6.000102
						CHANNELS 3 Zrotation Yrotation Xrotation
						JOINT RightArm
						{
							OFFSET 11.284127 -0.000006 -0.000019
							CHANNELS 3 Zrotation Yrotation Xrotation
							JOINT RightForeArm
							{
								OFFSET 33.000042 0.000001 0.000035
								CHANNELS 3 Zrotation Yrotation Xrotation
								JOINT RightHand
								{
									OFFSET 25.200005 0.000015 0.000003
									CHANNELS 3 Zrotation Yrotation Xrotation
									End Site
									{
										OFFSET 0.000000 0.000000 0.000000
									}
								}
							}
						}
					}
					JOINT LeftShoulder
					{
						OFFSET 19.746101 -1.480375 -6.000084
						CHANNELS 3 Zrotation Yrotation Xrotation
						JOINT LeftArm
						{
							OFFSET 11.284132 -0.000016 -0.000012
							CHANNELS 3 Zrotation Yrotation Xrotation
							JOINT LeftForeArm
							{
								OFFSET 33.000092 0.000018 0.000010
								CHANNELS 3 Zrotation Yrotation Xrotation
								JOINT LeftHand
								{
									OFFSET 25.199774 0.000137 0.000425
									CHANNELS 3 Zrotation Yrotation Xrotation
									End Site
									{
										OFFSET 0.000000 0.000000 0.000000
									}
								}
							}
						}
					}
				}
			}
		}
	}
}
MOTION
Frames: 11
Frame Time: 0.033333
95.268718 0.000000 233.783911 0.000000 57.740659 0.000000 4.127285 90.634872 0.374511 102.988343 1.696725 -179.976421 177.145013 -10.635103 179.592639 -23.333999 -6.073024 -7.585642 75.126296 3.814086 -6.175668 21.454557 0.003111 0.000019 -171.839636 6.841798 -167.601122 -21.745324 1.257542 9.499488 82.179634 -3.553893 14.451237 21.454551 -0.003091 0.000000 8.993144 0.795888 0.081857 7.975710 1.584289 0.218328 7.657472 1.585434 0.208749 7.677344 9.035142 18.362859 -17.241669 -15.527443 25.686434 -157.528082 -71.920615 -24.491884 6.283351 58.275065 35.972656 -36.960490 -18.529304 1.637127 1.663991 -20.687545 14.436768 -164.873076 78.998118 16.931325 15.906940 -60.569776 -37.683735 -33.727635 16.258085 -1.387789 7.550270 0.991822 -21.512729 
95.397382 0.000000 233.553856 0.000000 57.173620 0.000000 4.562927 90.597282 0.150437 103.676140 1.472760 179.984816 178.314765 -10.402693 178.577208 -23.671411 -5.844067 -7.397245 75.706288 3.758776 -5.968135 21.454557 0.003107 0.000018 -170.606623 7.237196 -167.338583 -21.249009 1.168600 8.961153 81.683858 -3.050475 14.738609 21.454553 -0.003098 -0.000001 8.912225 0.822178 0.194817 7.815571 1.629377 0.444662 7.497328 1.631898 0.434815 8.657243 8.737899 18.723985 -16.833365 -15.798928 26.004443 -155.588021 -71.279403 -26.500171 8.848697 58.802301 37.189625 -34.672793 -18.100652 1.554584 4.109669 -20.187662 11.366995 -164.589678 78.661807 17.222129 15.668032 -60.387813 -37.143665 -32.442408 16.163451 -1.353882 8.003342 1.174159 -20.440622 
95.538085 0.000000 233.340774 0.000000 56.743999 0.000000 4.949656 90.570686 -0.060590 104.334060 1.230938 179.819191 179.519610 -10.112595 178.186194 -23.742666 -5.840073 -7.563107 76.162750 3.910734 -5.919108 21.454558 0.003113 0.000017 -169.498780 7.676409 -167.182212 -20.864903 1.156711 8.522851 81.198730 -2.698135 14.668702 21.454557 -0.003096 -0.000001 8.871565 0.840580 0.297829 7.735808 1.659433 0.651146 7.417592 1.663207 0.641106 9.454160 8.480330 19.060655 -16.354046 -16.202616 26.346205 -154.014728 -70.876914 -28.128387 11.320151 59.347555 38.721640 -32.801171 -17.775308 1.491595 6.421323 -18.877968 8.182780 -164.177175 78.560945 17.642633 14.982023 -60.424983 -36.220930 -31.568103 15.791034 -1.311727 8.651270 1.322616 -19.933525 
95.690071 0.000000 233.143962 0.000000 56.445229 0.000000 5.299294 90.542397 -0.259361 104.974044 1.026909 179.621527 -179.359087 -9.820300 177.945634 -23.821931 -5.838091 -7.765886 76.592006 4.068265 -5.942766 21.454560 0.003102 0.000017 -168.509837 8.040998 -167.101534 -20.640072 1.131326 8.223004 80.827858 -2.538737 14.243771 21.454555 -0.003093 -0.000001 8.865184 0.860001 0.381444 7.724427 1.692701 0.819433 7.406206 1.697475 0.809191 10.219564 8.213972 19.470349 -16.070559 -16.575460 26.790625 -153.052204 -70.688414 -29.123670 13.976952 59.904775 40.292474 -31.749144 -17.618676 1.459025 8.233181 -17.237374 5.800367 -163.924690 78.570589 17.899612 14.516066 -60.559128 -35.491627 -31.503534 15.799315 -1.310925 9.246156 1.004317 -20.581522 
95.852582 0.000000 232.962716 0.000000 56.270703 0.000000 5.598695 90.501846 -0.429603 105.602397 0.818386 179.523120 -178.379666 -9.529692 178.006013 -23.942504 -5.906243 -7.996826 76.980030 4.243933 -5.973376 21.454555 0.003108 0.000018 -167.621626 8.315908 -166.873925 -20.603184 0.985772 8.001969 80.597441 -2.478104 13.703940 21.454555 -0.003094 0.000000 8.899135 0.873902 0.422271 7.793051 1.717458 0.902410 7.474849 1.722748 0.892020 10.890189 7.924406 19.983865 -15.858369 -16.859108 27.328335 -152.541319 -70.565375 -29.653017 16.304196 60.324873 41.361563 -31.119797 -17.525874 1.439993 9.164963 -14.401522 4.895032 -163.679200 78.676512 18.148617 14.232519 -60.758180 -35.358991 -32.058108 16.140285 -1.344320 9.372691 0.767497 -21.324954 
96.024861 0.000000 232.796331 0.000000 56.213811 0.000000 5.836413 90.455612 -0.563889 106.182391 0.539463 179.578962 -177.552420 -9.179791 177.807801 -24.063779 -5.781040 -7.926890 77.268332 4.208717 -5.960779 21.454557 0.003111 0.000016 -166.826920 8.523309 -166.652367 -20.653386 0.777924 7.973247 80.330538 -2.595695 12.981539 21.454553 -0.003087 0.000001 8.961256 0.868366 0.431340 7.917428 1.705285 0.921087 7.599212 1.710673 0.910768 11.742248 7.646818 20.558910 -16.179521 -17.246221 28.068676 -152.548109 -70.381015 -29.650910 17.700333 60.457303 41.642523 -30.792999 -17.490721 1.431065 9.649505 -10.468065 4.861023 -163.156062 78.643269 18.681213 13.994810 -60.813969 -35.272357 -33.059967 16.489158 -1.388068 9.165437 0.765687 -21.842837 
96.206150 0.000000 232.644103 0.000000 56.267958 0.000000 6.006526 90.412003 -0.660012 106.640495 0.267226 179.757571 -176.946883 -8.907309 177.617854 -24.183062 -5.676244 -7.699116 77.483551 4.072885 -5.890583 21.454557 0.003119 0.000018 -166.122331 8.629596 -166.525189 -20.651328 0.610950 8.129117 80.043800 -2.830806 12.324838 21.454553 -0.003093 0.000000 9.034108 0.856229 0.421424 8.062857 1.681077 0.901497 7.744645 1.686364 0.891325 12.585304 7.700768 21.147572 -16.545196 -18.000344 28.989778 -152.656135 -70.325390 -29.541186 18.212245 60.572679 41.808722 -30.665374 -17.612476 1.436258 9.699623 -6.652676 5.282875 -162.427486 78.496892 19.424315 13.675573 -60.730955 -35.110441 -34.377233 16.779907 -1.435947 8.699930 0.787567 -22.143827 
96.395691 0.000000 232.505330 0.000000 56.426557 0.000000 6.140736 90.388840 -0.729292 107.041865 0.020174 -179.974021 -176.430125 -8.691099 177.608004 -24.210751 -5.623608 -7.451019 77.610155 3.924496 -5.802218 21.454562 0.003111 0.000018 -165.360574 8.647404 -165.892960 -20.508640 0.289737 8.100802 79.894915 -2.861820 12.026231 21.454548 -0.003096 0.000001 9.121535 0.844546 0.390492 8.237167 1.659218 0.840107 7.918958 1.664121 0.830065 13.365231 7.881702 21.838992 -16.622566 -18.708102 29.952258 -152.731609 -70.347513 -29.462916 18.064279 60.667878 41.951189 -30.669520 -17.689941 1.441289 9.319759 -3.825026 7.255346 -161.613709 78.346204 20.254511 13.165718 -60.619213 -34.887138 -35.580450 17.011672 -1.478650 7.899974 1.126340 -21.944220 
96.592728 0.000000 232.379305 0.000000 56.683021 0.000000 6.230911 90.390343 -0.764799 107.347445 -0.119689 -179.755179 -176.017527 -8.598107 177.638986 -24.172582 -5.597962 -7.194354 77.669120 3.765881 -5.720731 21.454557 0.003106 0.000019 -164.622094 8.582902 -165.201649 -20.236047 0.015312 8.026306 79.915911 -2.766547 12.190310 21.454548 -0.003090 0.000001 9.200630 0.846012 0.374607 8.395194 1.662691 0.809602 8.076962 1.667396 0.799547 14.190157 8.148762 22.508426 -16.730057 -19.302063 30.859799 -152.745419 -70.444905 -29.446001 17.608668 60.810492 42.032728 -31.201175 -17.917429 1.466717 8.553909 -1.859234 11.283931 -160.978406 78.258402 20.902484 12.636985 -60.521842 -34.628106 -36.580796 17.165973 -1.512463 7.223024 1.503268 -21.731987 
96.796502 0.000000 232.265326 0.000000 57.030737 0.000000 6.261954 90.400383 -0.776528 107.478551 -0.176626 -179.599835 -175.842892 -8.568113 177.708722 -24.159523 -5.546722 -6.942616 77.692999 3.600292 -5.671305 21.454560 0.003103 0.000019 -164.067141 8.458598 -164.712225 -19.904607 -0.113239 8.074801 79.866447 -2.776807 12.261919 21.454553 -0.003095 0.000000 9.254991 0.859270 0.372026 8.504012 1.688946 0.806211 8.185798 1.693650 0.795983 14.864703 8.301581 23.069311 -16.781319 -19.667861 31.560938 -152.614307 -70.489096 -29.579811 17.019858 60.999682 41.825743 -32.196238 -18.196698 1.505532 7.766936 -0.535456 15.090417 -160.629807 78.351518 21.256112 12.263005 -60.482281 -34.445542 -37.451170 17.264131 -1.540121 6.901390 1.899171 -21.636649 
97.006256 0.000000 232.162689 0.000000 57.463045 0.000000 6.235611 90.406776 -0.769343 107.449652 -0.172178 -179.455711 -175.932136 -8.603813 177.959705 -24.224190 -5.556968 -6.739864 77.711891 3.468124 -5.631106 21.454557 0.003107 0.000017 -163.712162 8.274705 -164.483523 -19.601221 -0.124210 8.300333 79.809722 -2.909988 12.350620 21.454555 -0.003097 -0.000001 9.285742 0.875483 0.376525 8.565704 1.721023 0.809459 8.247487 1.725746 0.799047 15.301990 8.351358 23.454081 -16.679141 -19.746565 31.948135 -152.711678 -70.521293 -29.478782 16.406039 61.154413 41.297069 -33.381136 -18.495182 1.550592 7.181811 0.167008 16.488430 -160.788609 78.484823 21.092616 11.946706 -60.318548 -34.505757 -38.136023 17.323115 -1.561087 6.717175 2.324147 -21.446294 
